<?xml version="1.0" encoding="utf-8"?>
<!-- Generator: Adobe Illustrator 19.0.0, SVG Export Plug-In . SVG Version: 6.00 Build 0)  -->
<svg version="1.1" id="图层_1" xmlns="http://www.w3.org/2000/svg" xmlns:xlink="http://www.w3.org/1999/xlink" x="0px" y="0px"
	 viewBox="-197 320.9 200 200" style="enable-background:new -197 320.9 200 200;" xml:space="preserve">
<style type="text/css">
	.st0{fill:none;}
	.st1{fill:#D61518;}
	.st2{fill:#FFFFFF;}
	.st3{font-family:'STSong';}
	.st4{font-size:58.5px;}
</style>
<path class="st0" d="M-63,380.9l0.2,0.2l1.8-1.9l-12.2-11.7l-1.8,1.9l1.1,1.1c2.5,2.6,2.7,4.5,0.5,5.5l-24.2,10.6l8-23.3
	c0.7-2.2,1.6-3.4,2.7-3.5c1.1-0.1,2.7,0.7,4.7,2.7l0.8,0.7l1.8-1.9l-16.7-16l-1.8,1.9l0.4,0.4c1.4,1.3,2.1,2.5,2.3,3.6
	c0.1,0.9-0.2,2.6-1,5.2l-12.4,35l3,2.9l32.3-13.7C-68.6,378.2-65.1,378.4-63,380.9z"/>
<path class="st0" d="M-72.2,415.3l18.2-19c2.3-2.4,4.7-2.4,7.2,0l0.7,0.7l1.8-1.9l-15.2-14.6l-1.8,1.9l0.6,0.5
	c2.6,2.3,2.7,4.6,0.1,7L-79,409.2c-2,2.4-4.3,2.4-6.8,0l-0.6-0.5l-1.8,1.9l15.2,14.6l1.8-1.9l-0.8-0.7
	C-74.7,420.1-74.8,417.7-72.2,415.3z"/>
<path class="st0" d="M-33.9,404.1c-3.4-3-6.1-5.3-8.2-6.8l-1.8,1.9l0.9,0.9c2.6,2.3,2.8,4.3,0.7,6.1L-62,426.6
	c-1.7,2.2-3.7,2.1-6.1-0.4l-0.8-0.7l-1.8,1.9l16.3,15.7l1.8-1.9l-1.3-1.3c-3.2-2.6-3.5-5.1-0.7-7.5l6.8-7.1c0.6,0.8,1.3,1.7,1.9,2.5
	c0.8,0.7,1.8,1.7,3.2,3.1c8,7.2,14.9,8,20.6,2.5c5.5-6.5,4.1-13.8-4.1-22C-29,408.5-31.6,406.1-33.9,404.1z M-28.7,426.1
	c-4.7,4.6-9.3,4.9-14,0.7c-1.3-1.2-2.3-2.4-3-3.6l13-13.5c1.5,0.7,2.7,1.7,3.7,2.9C-24.6,416.9-24.5,421.5-28.7,426.1z"/>
<polygon class="st1" points="-89.3,320.9 -197,320.9 3,520.9 3,413.2 "/>
<text transform="matrix(0.7055 0.7087 -0.7087 0.7055 -127.8042 367.7907)" class="st2 st3 st4">SVIP</text>
</svg>
