<?xml version="1.0" encoding="utf-8"?>
<!-- Generator: Adobe Illustrator 19.0.0, SVG Export Plug-In . SVG Version: 6.00 Build 0)  -->
<svg version="1.1" id="图层_1" xmlns="http://www.w3.org/2000/svg" xmlns:xlink="http://www.w3.org/1999/xlink" x="0px" y="0px"
	 viewBox="0 0 200 200" style="enable-background:new 0 0 200 200;" xml:space="preserve">
<style type="text/css">
	.st0{fill:none;}
	.st1{fill:#D61518;}
</style>
<g>
	<path class="st0" d="M134,60l0.2,0.2l1.8-1.9l-12.2-11.7l-1.8,1.9l1.1,1.1c2.5,2.6,2.7,4.5,0.5,5.5L99.4,65.7l8-23.3
		c0.7-2.2,1.6-3.4,2.7-3.5c1.1-0.1,2.7,0.7,4.7,2.7l0.8,0.7l1.8-1.9l-16.7-16l-1.8,1.9l0.4,0.4c1.4,1.3,2.1,2.5,2.3,3.6
		c0.1,0.9-0.2,2.6-1,5.2L88.2,70.5l3,2.9l32.3-13.7C128.4,57.3,131.9,57.5,134,60z"/>
	<path class="st0" d="M124.8,94.4L143,75.4c2.3-2.4,4.7-2.4,7.2,0l0.7,0.7l1.8-1.9l-15.2-14.6l-1.8,1.9l0.6,0.5
		c2.6,2.3,2.7,4.6,0.1,7L118,88.3c-2,2.4-4.3,2.4-6.8,0l-0.6-0.5l-1.8,1.9l15.2,14.6l1.8-1.9l-0.8-0.7
		C122.3,99.2,122.2,96.8,124.8,94.4z"/>
	<path class="st0" d="M163.1,83.2c-3.4-3-6.1-5.3-8.2-6.8l-1.8,1.9l0.9,0.9c2.6,2.3,2.8,4.3,0.7,6.1L135,105.7
		c-1.7,2.2-3.7,2.1-6.1-0.4l-0.8-0.7l-1.8,1.9l16.3,15.7l1.8-1.9l-1.3-1.3c-3.2-2.6-3.5-5.1-0.7-7.5l6.8-7.1
		c0.6,0.8,1.3,1.7,1.9,2.5c0.8,0.7,1.8,1.7,3.2,3.1c8,7.2,14.9,8,20.6,2.5c5.5-6.5,4.1-13.8-4.1-22C168,87.6,165.4,85.2,163.1,83.2z
		 M168.3,105.2c-4.7,4.6-9.3,4.9-14,0.7c-1.3-1.2-2.3-2.4-3-3.6l13-13.5c1.5,0.7,2.7,1.7,3.7,2.9C172.4,96,172.5,100.6,168.3,105.2z
		"/>
	<path class="st1" d="M107.7,0H0l200,200V92.3L107.7,0z M88.2,70.5l12.2-35.2c0.8-2.6,1.1-4.3,1-5.2c-0.1-1.1-0.9-2.3-2.3-3.6
		l-0.4-0.4l1.8-1.9l16.7,16l-1.8,1.9l-0.8-0.7c-2-1.9-3.6-2.8-4.7-2.7c-1.1,0.1-2,1.3-2.7,3.5l-8,23.3L123.6,55c2.2-1,2-2.9-0.5-5.5
		l-1.1-1.1l1.8-1.9L136,58.3l-1.8,1.9L134,60c-2.1-2.5-5.6-2.6-10.5-0.3L91.2,73.4L88.2,70.5z M124,104.1l-15.2-14.6l1.8-1.9
		l0.6,0.5c2.5,2.4,4.8,2.4,6.8,0l18.4-19.1c2.5-2.4,2.5-4.7-0.1-7l-0.6-0.5l1.8-1.9l15.2,14.6l-1.8,1.9l-0.7-0.7
		c-2.5-2.4-4.9-2.4-7.2,0l-18.2,18.9c-2.5,2.4-2.4,4.8,0.3,7.2l0.8,0.7L124,104.1z M175,112.4c-5.8,5.5-12.7,4.7-20.6-2.5
		c-1.4-1.3-2.4-2.3-3.2-3.1c-0.6-0.8-1.3-1.7-1.9-2.5l-6.8,7.1c-2.8,2.4-2.5,4.9,0.7,7.5l1.3,1.3l-1.8,1.9l-16.3-15.7l1.8-1.9
		l0.8,0.7c2.4,2.5,4.4,2.7,6.1,0.4l19.6-20.4c2.2-1.8,1.9-3.8-0.7-6.1l-0.9-0.9l1.8-1.9c2.1,1.6,4.9,3.8,8.2,6.8
		c2.4,2,5,4.4,7.9,7.2C179.2,98.6,180.6,105.9,175,112.4z"/>
	<path class="st1" d="M164.3,88.7l-13,13.5c0.8,1.2,1.8,2.4,3,3.6c4.6,4.2,9.3,4,14-0.7c4.2-4.6,4.1-9.2-0.3-13.6
		C167,90.4,165.8,89.4,164.3,88.7z"/>
</g>
</svg>
